<?xml version="1.0" encoding="us-ascii" standalone="no"?><svg xmlns="http://www.w3.org/2000/svg" xmlns:xlink="http://www.w3.org/1999/xlink" contentStyleType="text/css" height="1171px" preserveAspectRatio="none" style="width:467px;height:1171px;background:#FFFFFF;" version="1.1" viewBox="0 0 467 1171" width="467px" zoomAndPan="magnify"><defs/><g><text fill="#000000" font-family="sans-serif" font-size="14" font-weight="bold" lengthAdjust="spacing" textLength="352" x="50.5" y="24.5332">Use Case Diagram - Increment 2 (UC-11 s.d. UC-22)</text><!--cluster Increment 2 - Fitur Lanjutan--><g id="cluster_Increment 2 - Fitur Lanjutan"><rect fill="none" height="1115" rx="2.5" ry="2.5" style="stroke:#181818;stroke-width:1.0;" width="298" x="163" y="45.6094"/><text fill="#000000" font-family="sans-serif" font-size="14" font-weight="bold" lengthAdjust="spacing" textLength="193" x="215.5" y="62.1426">Increment 2 - Fitur Lanjutan</text></g><g id="elem_UC11"><ellipse cx="311.8528" cy="752.5128" fill="#F1F1F1" rx="87.8528" ry="27.9034" style="stroke:#181818;stroke-width:0.5;"/><text fill="#000000" font-family="sans-serif" font-size="14" lengthAdjust="spacing" textLength="40" x="291.8528" y="747.4366">UC-11</text><text fill="#000000" font-family="sans-serif" font-size="14" lengthAdjust="spacing" textLength="108" x="257.8528" y="765.046">Kelola Pengguna</text></g><g id="elem_UC12"><ellipse cx="311.8942" cy="383.5882" fill="#F1F1F1" rx="132.8942" ry="28.9788" style="stroke:#181818;stroke-width:0.5;"/><text fill="#000000" font-family="sans-serif" font-size="14" lengthAdjust="spacing" textLength="40" x="291.8942" y="378.512">UC-12</text><text fill="#000000" font-family="sans-serif" font-size="14" lengthAdjust="spacing" textLength="179" x="222.3942" y="396.1214">Kelola Peran dan Hak Akses</text></g><g id="elem_UC13"><ellipse cx="312.0674" cy="476.7228" fill="#F1F1F1" rx="131.0674" ry="28.6135" style="stroke:#181818;stroke-width:0.5;"/><text fill="#000000" font-family="sans-serif" font-size="14" lengthAdjust="spacing" textLength="40" x="292.0674" y="471.6467">UC-13</text><text fill="#000000" font-family="sans-serif" font-size="14" lengthAdjust="spacing" textLength="174" x="225.0674" y="489.2561">Kelola Metode Pembayaran</text></g><g id="elem_UC14"><ellipse cx="311.9823" cy="568.5058" fill="#F1F1F1" rx="129.9823" ry="28.3965" style="stroke:#181818;stroke-width:0.5;"/><text fill="#000000" font-family="sans-serif" font-size="14" lengthAdjust="spacing" textLength="40" x="291.9823" y="563.4297">UC-14</text><text fill="#000000" font-family="sans-serif" font-size="14" lengthAdjust="spacing" textLength="171" x="226.4823" y="581.039">Kelola Pelanggan dan Poin</text></g><g id="elem_UC15"><ellipse cx="311.9823" cy="660.5058" fill="#F1F1F1" rx="129.9823" ry="28.3965" style="stroke:#181818;stroke-width:0.5;"/><text fill="#000000" font-family="sans-serif" font-size="14" lengthAdjust="spacing" textLength="40" x="291.9823" y="655.4297">UC-15</text><text fill="#000000" font-family="sans-serif" font-size="14" lengthAdjust="spacing" textLength="171" x="226.4823" y="673.039">Akses dan Ekspor Laporan</text></g><g id="elem_UC16"><ellipse cx="311.8823" cy="1025.5128" fill="#F1F1F1" rx="70.8823" ry="27.9034" style="stroke:#181818;stroke-width:0.5;"/><text fill="#000000" font-family="sans-serif" font-size="14" lengthAdjust="spacing" textLength="40" x="291.8823" y="1020.4366">UC-16</text><text fill="#000000" font-family="sans-serif" font-size="14" lengthAdjust="spacing" textLength="84" x="269.8823" y="1038.046">Aktivasi Akun</text></g><g id="elem_UC17"><ellipse cx="312.1518" cy="109.5128" fill="#F1F1F1" rx="107.6518" ry="27.9034" style="stroke:#181818;stroke-width:0.5;"/><text fill="#000000" font-family="sans-serif" font-size="14" lengthAdjust="spacing" textLength="40" x="292.1518" y="104.4366">UC-17</text><text fill="#000000" font-family="sans-serif" font-size="14" lengthAdjust="spacing" textLength="136" x="244.1518" y="122.046">Kelola Stock Opname</text></g><g id="elem_UC18"><ellipse cx="311.8087" cy="200.5128" fill="#F1F1F1" rx="113.3087" ry="27.9034" style="stroke:#181818;stroke-width:0.5;"/><text fill="#000000" font-family="sans-serif" font-size="14" lengthAdjust="spacing" textLength="40" x="291.8087" y="195.4366">UC-18</text><text fill="#000000" font-family="sans-serif" font-size="14" lengthAdjust="spacing" textLength="144" x="239.8087" y="213.046">Kelola Alur Persediaan</text></g><g id="elem_UC19"><ellipse cx="311.8883" cy="291.5128" fill="#F1F1F1" rx="91.3883" ry="27.9034" style="stroke:#181818;stroke-width:0.5;"/><text fill="#000000" font-family="sans-serif" font-size="14" lengthAdjust="spacing" textLength="40" x="291.8883" y="286.4366">UC-19</text><text fill="#000000" font-family="sans-serif" font-size="14" lengthAdjust="spacing" textLength="113" x="255.3883" y="304.046">Penggunaan Poin</text></g><g id="elem_UC20"><ellipse cx="311.9508" cy="1116.5128" fill="#F1F1F1" rx="127.4508" ry="27.9034" style="stroke:#181818;stroke-width:0.5;"/><text fill="#000000" font-family="sans-serif" font-size="14" lengthAdjust="spacing" textLength="40" x="291.9508" y="1111.4366">UC-20</text><text fill="#000000" font-family="sans-serif" font-size="14" lengthAdjust="spacing" textLength="164" x="229.9508" y="1129.046">Mengakses Landing Page</text></g><g id="elem_UC21"><ellipse cx="311.9594" cy="843.5128" fill="#F1F1F1" rx="98.4594" ry="27.9034" style="stroke:#181818;stroke-width:0.5;"/><text fill="#000000" font-family="sans-serif" font-size="14" lengthAdjust="spacing" textLength="40" x="291.9594" y="838.4366">UC-21</text><text fill="#000000" font-family="sans-serif" font-size="14" lengthAdjust="spacing" textLength="123" x="250.4594" y="856.046">Kelola Profil Pribadi</text></g><g id="elem_UC22"><ellipse cx="311.9889" cy="934.5128" fill="#F1F1F1" rx="81.4889" ry="27.9034" style="stroke:#181818;stroke-width:0.5;"/><text fill="#000000" font-family="sans-serif" font-size="14" lengthAdjust="spacing" textLength="40" x="291.9889" y="929.4366">UC-22</text><text fill="#000000" font-family="sans-serif" font-size="14" lengthAdjust="spacing" textLength="99" x="262.4889" y="947.046">Kelola Notifikasi</text></g><!--entity Inventori--><g id="elem_Inventori"><ellipse cx="62.5" cy="114.1094" fill="#F1F1F1" rx="8" ry="8" style="stroke:#181818;stroke-width:0.5;"/><path d="M62.5,122.1094 L62.5,149.1094 M49.5,130.1094 L75.5,130.1094 M62.5,149.1094 L49.5,164.1094 M62.5,149.1094 L75.5,164.1094 " fill="none" style="stroke:#181818;stroke-width:0.5;"/><text fill="#000000" font-family="sans-serif" font-size="14" lengthAdjust="spacing" textLength="87" x="19" y="180.1426">Staff Inventori</text></g><!--entity Kasir--><g id="elem_Kasir"><ellipse cx="62.5" cy="261.1094" fill="#F1F1F1" rx="8" ry="8" style="stroke:#181818;stroke-width:0.5;"/><path d="M62.5,269.1094 L62.5,296.1094 M49.5,277.1094 L75.5,277.1094 M62.5,296.1094 L49.5,311.1094 M62.5,296.1094 L75.5,311.1094 " fill="none" style="stroke:#181818;stroke-width:0.5;"/><text fill="#000000" font-family="sans-serif" font-size="14" lengthAdjust="spacing" textLength="32" x="46.5" y="327.1426">Kasir</text></g><!--entity Admin--><g id="elem_Admin"><ellipse cx="62.5" cy="538.1094" fill="#F1F1F1" rx="8" ry="8" style="stroke:#181818;stroke-width:0.5;"/><path d="M62.5,546.1094 L62.5,573.1094 M49.5,554.1094 L75.5,554.1094 M62.5,573.1094 L49.5,588.1094 M62.5,573.1094 L75.5,588.1094 " fill="none" style="stroke:#181818;stroke-width:0.5;"/><text fill="#000000" font-family="sans-serif" font-size="14" lengthAdjust="spacing" textLength="39" x="43" y="604.1426">Admin</text></g><!--entity AllUser--><g id="elem_AllUser"><ellipse cx="62.5" cy="842.1094" fill="#F1F1F1" rx="8" ry="8" style="stroke:#181818;stroke-width:0.5;"/><path d="M62.5,850.1094 L62.5,877.1094 M49.5,858.1094 L75.5,858.1094 M62.5,877.1094 L49.5,892.1094 M62.5,877.1094 L75.5,892.1094 " fill="none" style="stroke:#181818;stroke-width:0.5;"/><text fill="#000000" font-family="sans-serif" font-size="14" lengthAdjust="spacing" textLength="113" x="6" y="908.1426">Semua Pengguna</text></g><!--entity NewUser--><g id="elem_NewUser"><ellipse cx="62.5" cy="984.1094" fill="#F1F1F1" rx="8" ry="8" style="stroke:#181818;stroke-width:0.5;"/><path d="M62.5,992.1094 L62.5,1019.1094 M49.5,1000.1094 L75.5,1000.1094 M62.5,1019.1094 L49.5,1034.1094 M62.5,1019.1094 L75.5,1034.1094 " fill="none" style="stroke:#181818;stroke-width:0.5;"/><text fill="#000000" font-family="sans-serif" font-size="14" lengthAdjust="spacing" textLength="63" x="31" y="1050.1426">Staff Baru</text></g><!--entity Visitor--><g id="elem_Visitor"><ellipse cx="62.5" cy="1097.1094" fill="#F1F1F1" rx="8" ry="8" style="stroke:#181818;stroke-width:0.5;"/><path d="M62.5,1105.1094 L62.5,1132.1094 M49.5,1113.1094 L75.5,1113.1094 M62.5,1132.1094 L49.5,1147.1094 M62.5,1132.1094 L75.5,1147.1094 " fill="none" style="stroke:#181818;stroke-width:0.5;"/><text fill="#000000" font-family="sans-serif" font-size="14" lengthAdjust="spacing" textLength="76" x="24.5" y="1163.1426">Pengunjung</text></g><!--link Admin to UC11--><g id="link_Admin_UC11"><path d="M80.19,607.7594 C95.37,638.8794 120.66,681.2494 155,706.6094 C177.49,723.2094 200.0995,732.3633 226.5095,739.1633 " fill="none" id="Admin-to-UC11" style="stroke:#181818;stroke-width:1.0;"/><polygon fill="#181818" points="232.32,740.6594,224.6017,734.5416,227.4779,739.4126,222.6069,742.2889,232.32,740.6594" style="stroke:#181818;stroke-width:1.0;"/></g><!--link Admin to UC12--><g id="link_Admin_UC12"><path d="M80.23,529.5094 C95.43,498.4294 120.73,456.0694 155,430.6094 C171.46,418.3794 185.431,411.2456 205.141,404.5256 " fill="none" id="Admin-to-UC12" style="stroke:#181818;stroke-width:1.0;"/><polygon fill="#181818" points="210.82,402.5894,201.0107,401.7077,206.0875,404.2029,203.5923,409.2797,210.82,402.5894" style="stroke:#181818;stroke-width:1.0;"/></g><!--link Admin to UC13--><g id="link_Admin_UC13"><path d="M82.32,557.8894 C100.51,547.8394 129.04,532.8694 155,522.6094 C177.98,513.5294 197.7122,506.967 221.3222,500.047 " fill="none" id="Admin-to-UC13" style="stroke:#181818;stroke-width:1.0;"/><polygon fill="#181818" points="227.08,498.3594,217.3183,497.0522,222.2818,499.7657,219.5684,504.7293,227.08,498.3594" style="stroke:#181818;stroke-width:1.0;"/></g><!--link Admin to UC14--><g id="link_Admin_UC14"><path d="M82.1,568.6094 C104.08,568.6094 136.65,568.6094 175.93,568.6094 " fill="none" id="Admin-to-UC14" style="stroke:#181818;stroke-width:1.0;"/><polygon fill="#181818" points="181.93,568.6094,172.93,564.6094,176.93,568.6094,172.93,572.6094,181.93,568.6094" style="stroke:#181818;stroke-width:1.0;"/></g><!--link Admin to UC15--><g id="link_Admin_UC15"><path d="M82.32,579.3294 C100.51,589.3794 129.04,604.3494 155,614.6094 C177.98,623.6894 197.7122,630.2518 221.3222,637.1718 " fill="none" id="Admin-to-UC15" style="stroke:#181818;stroke-width:1.0;"/><polygon fill="#181818" points="227.08,638.8594,219.5684,632.4895,222.2818,637.4531,217.3183,640.1665,227.08,638.8594" style="stroke:#181818;stroke-width:1.0;"/></g><!--link NewUser to UC16--><g id="link_NewUser_UC16"><path d="M94.1,1015.9694 C130.63,1017.5894 186.8859,1020.0935 235.3559,1022.2435 " fill="none" id="NewUser-to-UC16" style="stroke:#181818;stroke-width:1.0;"/><polygon fill="#181818" points="241.35,1022.5094,232.5361,1018.1145,236.3549,1022.2878,232.1816,1026.1066,241.35,1022.5094" style="stroke:#181818;stroke-width:1.0;"/></g><!--link Inventori to UC17--><g id="link_Inventori_UC17"><path d="M106.05,138.5894 C136.59,134.2694 173.009,129.1188 211.299,123.7088 " fill="none" id="Inventori-to-UC17" style="stroke:#181818;stroke-width:1.0;"/><polygon fill="#181818" points="217.24,122.8694,207.7689,120.1678,212.2892,123.5689,208.8881,128.0891,217.24,122.8694" style="stroke:#181818;stroke-width:1.0;"/></g><!--link Inventori to UC18--><g id="link_Inventori_UC18"><path d="M106.05,154.2394 C139.42,161.7894 181.058,171.2049 221.928,180.4549 " fill="none" id="Inventori-to-UC18" style="stroke:#181818;stroke-width:1.0;"/><polygon fill="#181818" points="227.78,181.7794,219.885,175.8913,222.9033,180.6757,218.119,183.694,227.78,181.7794" style="stroke:#181818;stroke-width:1.0;"/></g><!--link Kasir to UC19--><g id="link_Kasir_UC19"><path d="M78.61,291.6094 C106.42,291.6094 161.7,291.6094 214.35,291.6094 " fill="none" id="Kasir-to-UC19" style="stroke:#181818;stroke-width:1.0;"/><polygon fill="#181818" points="220.35,291.6094,211.35,287.6094,215.35,291.6094,211.35,295.6094,220.35,291.6094" style="stroke:#181818;stroke-width:1.0;"/></g><!--link Visitor to UC20--><g id="link_Visitor_UC20"><path d="M100.55,1125.9594 C123.82,1124.9294 149.2959,1123.7957 180.8059,1122.3957 " fill="none" id="Visitor-to-UC20" style="stroke:#181818;stroke-width:1.0;"/><polygon fill="#181818" points="186.8,1122.1294,177.6313,1118.5328,181.8049,1122.3513,177.9864,1126.5249,186.8,1122.1294" style="stroke:#181818;stroke-width:1.0;"/></g><!--link AllUser to UC21--><g id="link_AllUser_UC21"><path d="M119.04,866.0994 C148.97,862.5894 180.6808,858.8781 214.7108,854.8881 " fill="none" id="AllUser-to-UC21" style="stroke:#181818;stroke-width:1.0;"/><polygon fill="#181818" points="220.67,854.1894,211.2654,851.2647,215.704,854.7716,212.197,859.2102,220.67,854.1894" style="stroke:#181818;stroke-width:1.0;"/></g><!--link AllUser to UC22--><g id="link_AllUser_UC22"><path d="M119.04,886.5194 C156.53,895.9094 200.3302,906.88 239.7302,916.76 " fill="none" id="AllUser-to-UC22" style="stroke:#181818;stroke-width:1.0;"/><polygon fill="#181818" points="245.55,918.2194,237.7932,912.1504,240.7002,917.0032,235.8474,919.9102,245.55,918.2194" style="stroke:#181818;stroke-width:1.0;"/></g><!--SRC=[PLDDRzim3BthLn2vR3kaQ9IqQIy3icp3XgvTW20xvSBQYiVPbW99xb0C- - -Z5SiVsY6E-F58wl49FFbAmS4fs29_FX8M5ckOmrUTMLKhxK72syDslbY0kyglW8zIlXEYKYSFte2bugU7dApAF1ajN4dwZ6sDCsOb5chlNxb36qPTL4e8pBonCDjxF9supGltC9PcW6wmOj83Eh8X54xHlSbhqi4TJdr9LJS8EwMBej5uYLSLNyvEctv0suJea_ezZhR8HlzgT16YFyWH-uNeXuVPc9OvV2RVMFY6ZE646VmH06-wcG0QfxAMr5cWxwWVL6MgPBx3Th58K-KerQA6d7zVi8HDwPIBA9cYbZtgKNcJAmRNp_ZAgz0Hiqmngr6dYczOTDrsXdhGAWNT77MO96H-AjtPj1JmTsXq8m8H0zjfZTksXgSNNYfVg-c1jsFWe8O4lUx7tdkJbV3zhB5MiSOwJR_hqpSLhuj9TIed7CQzktIzI2m1tnzrN5X2pFq5DOWcWShhetxa80QoM2GvwG9s_2Iw2lAwk-r4jccLaN2iEL75V_ICESKYgNpa89ydu-b49Lyh9alnLuYWJvZFtr_KDp7br5nEpTNKv3LtBoXwU7_zrg9l_R-B2GzaHvkfx1vRvscfwPvkz2nIXnJ_0000]--></g></svg>